<svg width="32" height="32" viewBox="0 0 32 32" xmlns="http://www.w3.org/2000/svg">
  <!-- Elite Warrior (Red) -->
  <circle cx="16" cy="8" r="4" fill="#DC143C" stroke="#A0142C" stroke-width="1"/>
  <!-- Body -->
  <rect x="12" y="12" width="8" height="12" fill="#DC143C" stroke="#A0142C" stroke-width="1" rx="2"/>
  <!-- Arms -->
  <rect x="8" y="14" width="4" height="8" fill="#DC143C" stroke="#A0142C" stroke-width="1" rx="2"/>
  <rect x="20" y="14" width="4" height="8" fill="#DC143C" stroke="#A0142C" stroke-width="1" rx="2"/>
  <!-- Legs -->
  <rect x="13" y="24" width="3" height="6" fill="#DC143C" stroke="#A0142C" stroke-width="1" rx="1"/>
  <rect x="16" y="24" width="3" height="6" fill="#DC143C" stroke="#A0142C" stroke-width="1" rx="1"/>
  <!-- Eyes (fierce) -->
  <circle cx="14" cy="7" r="1" fill="#FFFFFF"/>
  <circle cx="18" cy="7" r="1" fill="#FFFFFF"/>
  <circle cx="14" cy="7" r="0.5" fill="#FF0000"/>
  <circle cx="18" cy="7" r="0.5" fill="#FF0000"/>
  <!-- Helmet -->
  <rect x="12" y="3" width="8" height="3" fill="#808080" stroke="#5A5A5A" stroke-width="1" rx="2"/>
  <!-- Armor details -->
  <rect x="13" y="14" width="6" height="2" fill="#C0C0C0" stroke="#808080" stroke-width="0.5"/>
  <rect x="13" y="17" width="6" height="2" fill="#C0C0C0" stroke="#808080" stroke-width="0.5"/>
  <!-- Axe -->
  <rect x="26" y="10" width="2" height="8" fill="#8B4513" stroke="#654321" stroke-width="0.5"/>
  <polygon points="24,8 30,8 30,12 28,14 24,12" fill="#C0C0C0" stroke="#808080" stroke-width="0.5"/>
</svg> 